<svg width="905" height="905" viewBox="0 0 905 905" fill="none" xmlns="http://www.w3.org/2000/svg">
<circle cx="453" cy="450" r="450" fill="#000B20"/>
<path d="M94.8438 337.5V250H442.5V337.5H322.188V650H215.156V337.5H94.8438Z" fill="white"/>
<path d="M483.369 650V250H656.807C687.275 250 712.861 254.102 733.564 262.305C754.398 270.508 770.088 282.096 780.635 297.07C791.312 312.044 796.65 329.687 796.65 350C796.65 364.714 793.395 378.125 786.885 390.234C780.505 402.344 771.52 412.5 759.932 420.703C748.343 428.776 734.801 434.375 719.307 437.5V441.406C736.494 442.057 752.119 446.419 766.182 454.492C780.244 462.435 791.442 473.437 799.775 487.5C808.109 501.432 812.275 517.839 812.275 536.719C812.275 558.594 806.546 578.06 795.088 595.117C783.76 612.174 767.614 625.586 746.65 635.352C725.687 645.117 700.687 650 671.65 650H483.369ZM591.963 563.281H642.744C660.973 563.281 674.645 559.896 683.76 553.125C692.874 546.224 697.432 536.068 697.432 522.656C697.432 513.281 695.283 505.339 690.986 498.828C686.689 492.318 680.57 487.37 672.627 483.984C664.814 480.599 655.374 478.906 644.307 478.906H591.963V563.281ZM591.963 411.719H636.494C645.999 411.719 654.398 410.221 661.689 407.227C668.981 404.232 674.645 399.935 678.682 394.336C682.848 388.607 684.932 381.641 684.932 373.437C684.932 361.068 680.505 351.628 671.65 345.117C662.796 338.477 651.598 335.156 638.057 335.156H591.963V411.719Z" fill="#EB5050"/>
</svg>
